<?xml version="1.0" encoding="UTF-8"?>
<svg width="200px" height="200px" viewBox="0 0 200 200" xmlns="http://www.w3.org/2000/svg">
  <title>Money Plant</title>
  <defs>
    <linearGradient id="leafGradient" x1="0%" y1="0%" x2="100%" y2="100%">
      <stop offset="0%" stop-color="#8BC34A" />
      <stop offset="100%" stop-color="#4CAF50" />
    </linearGradient>
    <linearGradient id="stemGradient" x1="0%" y1="0%" x2="100%" y2="0%">
      <stop offset="0%" stop-color="#7CB342" />
      <stop offset="100%" stop-color="#558B2F" />
    </linearGradient>
  </defs>
  
  <!-- Stem -->
  <path d="M100,180 C100,180 100,140 100,120" stroke="#558B2F" stroke-width="6" stroke-linecap="round" fill="none" />
  
  <!-- First leaf set -->
  <g transform="translate(0, 10)">
    <!-- Circular leaves -->
    <circle cx="85" cy="90" r="30" fill="url(#leafGradient)" />
    <circle cx="115" cy="90" r="30" fill="url(#leafGradient)" />
    
    <!-- Leaf details -->
    <path d="M85,90 C85,75 100,65 115,90" stroke="#ffffff" stroke-width="2" fill="none" opacity="0.7" />
    <path d="M115,90 C115,75 100,65 85,90" stroke="#ffffff" stroke-width="2" fill="none" opacity="0.7" />
  </g>
  
  <!-- Second leaf -->
  <g transform="translate(0, -30)">
    <!-- Circular leaves -->
    <circle cx="75" cy="70" r="25" fill="url(#leafGradient)" />
    <circle cx="125" cy="70" r="25" fill="url(#leafGradient)" />
    
    <!-- Leaf details -->
    <path d="M75,70 C75,55 100,45 125,70" stroke="#ffffff" stroke-width="2" fill="none" opacity="0.7" />
    <path d="M125,70 C125,55 100,45 75,70" stroke="#ffffff" stroke-width="2" fill="none" opacity="0.7" />
  </g>
  
  <!-- Top small leaf -->
  <g transform="translate(0, -60)">
    <!-- Circular leaves -->
    <circle cx="85" cy="50" r="20" fill="url(#leafGradient)" />
    <circle cx="115" cy="50" r="20" fill="url(#leafGradient)" />
    
    <!-- Leaf details -->
    <path d="M85,50 C85,40 100,35 115,50" stroke="#ffffff" stroke-width="2" fill="none" opacity="0.7" />
    <path d="M115,50 C115,40 100,35 85,50" stroke="#ffffff" stroke-width="2" fill="none" opacity="0.7" />
  </g>
</svg> 