<?xml version="1.0" encoding="UTF-8"?>
<svg width="200px" height="200px" viewBox="0 0 200 200" xmlns="http://www.w3.org/2000/svg">
  <title>Pothos</title>
  <defs>
    <linearGradient id="leafGradient" x1="0%" y1="0%" x2="100%" y2="100%">
      <stop offset="0%" stop-color="#8BC34A" />
      <stop offset="100%" stop-color="#4CAF50" />
    </linearGradient>
    <linearGradient id="stemGradient" x1="0%" y1="0%" x2="100%" y2="0%">
      <stop offset="0%" stop-color="#7CB342" />
      <stop offset="100%" stop-color="#558B2F" />
    </linearGradient>
    <linearGradient id="potGradient" x1="0%" y1="0%" x2="100%" y2="100%">
      <stop offset="0%" stop-color="#A1887F" />
      <stop offset="100%" stop-color="#8D6E63" />
    </linearGradient>
  </defs>
  
  <!-- Pot -->
  <path d="M70,180 L130,180 L140,140 L60,140 Z" fill="url(#potGradient)" />
  <ellipse cx="100" cy="140" rx="40" ry="5" fill="#795548" />
  
  <!-- Main stem -->
  <path d="M100,140 C100,140 100,130 100,120 C100,110 105,105 110,100 C115,95 120,85 130,80 C140,75 150,65 160,65" stroke="#558B2F" stroke-width="3" stroke-linecap="round" fill="none" />
  <path d="M100,120 C100,120 95,115 90,110 C85,105 75,105 70,100 C65,95 55,85 45,85" stroke="#558B2F" stroke-width="3" stroke-linecap="round" fill="none" />
  <path d="M110,100 C110,100 100,95 95,90 C90,85 90,75 85,70 C80,65 70,55 60,55" stroke="#558B2F" stroke-width="3" stroke-linecap="round" fill="none" />
  <path d="M95,90 C95,90 95,85 95,80 C95,75 100,70 105,65 C110,60 120,55 130,55" stroke="#558B2F" stroke-width="3" stroke-linecap="round" fill="none" />
  
  <!-- Leaves -->
  <!-- Bottom right leaf -->
  <path d="M160,65 C165,60 170,55 165,45 C160,35 150,35 145,40 C140,45 145,55 155,60 C165,65 160,65 160,65 Z" fill="url(#leafGradient)" />
  <path d="M165,45 C160,45 155,50 155,60" stroke="#ffffff" stroke-width="1" fill="none" opacity="0.7" />
  
  <!-- Bottom left leaf -->
  <path d="M45,85 C40,80 35,75 40,65 C45,55 55,55 60,60 C65,65 60,75 50,80 C40,85 45,85 45,85 Z" fill="url(#leafGradient)" />
  <path d="M40,65 C45,65 50,70 50,80" stroke="#ffffff" stroke-width="1" fill="none" opacity="0.7" />
  
  <!-- Middle left leaf -->
  <path d="M60,55 C55,50 50,45 55,35 C60,25 70,25 75,30 C80,35 75,45 65,50 C55,55 60,55 60,55 Z" fill="url(#leafGradient)" />
  <path d="M55,35 C60,35 65,40 65,50" stroke="#ffffff" stroke-width="1" fill="none" opacity="0.7" />
  
  <!-- Top right leaf -->
  <path d="M130,55 C135,50 140,45 135,35 C130,25 120,25 115,30 C110,35 115,45 125,50 C135,55 130,55 130,55 Z" fill="url(#leafGradient)" />
  <path d="M135,35 C130,35 125,40 125,50" stroke="#ffffff" stroke-width="1" fill="none" opacity="0.7" />
  
  <!-- Small leaf in pot -->
  <path d="M90,130 C85,125 80,120 85,110 C90,100 100,100 105,105 C110,110 105,120 95,125 C85,130 90,130 90,130 Z" fill="url(#leafGradient)" />
  <path d="M85,110 C90,110 95,115 95,125" stroke="#ffffff" stroke-width="1" fill="none" opacity="0.7" />
</svg> 